#DAE Obj exporter, made by Koen Samyn
mtllib ./gebouw.mtl
g

#106 vertices to come
v -10.0 -10.0 16.4162
v 10.0 -10.0 16.4162
v 10.0 9.99999 16.4162
v 10.0 -10.0 17.0162
v -10.0 9.99999 17.0162
v 10.0 9.99999 17.0162
v -10.0 -10.0 10.9663
v 10.0 -10.0 10.9663
v -10.0 9.99999 10.9663
v 10.0 9.99999 10.9663
v -10.0 -10.0 11.5663
v 10.0 -10.0 11.5663
v -10.0 9.99999 11.5663
v 10.0 9.99999 11.5663
v -10.0 -10.0 5.51643
v 10.0 -10.0 5.51643
v -10.0 10.0 5.51643
v 10.0 10.0 5.51643
v -10.0 -10.0 6.11643
v 10.0 -10.0 6.11643
v -10.0 10.0 6.11643
v 10.0 10.0 6.11643
v -10.0 -10.0 0.0665627
v 10.0 -10.0 0.0665627
v 10.0 10.0 0.0665627
v 10.0 -10.0 0.666563
v -10.0 10.0 0.666563
v -10.0 -10.0 17.0162
v -10.0 -5.91398 10.9663
v -5.82625 -5.91398 10.9663
v -5.82625 -5.91398 11.5663
v -10.0 -5.91398 11.5663
v -10.0 -5.91398 5.51643
v -5.82625 -5.91398 5.51643
v -5.82625 -5.91398 6.11643
v -10.0 -5.91398 6.11643
v -10.0 -10.0 0.666563
v -10.0 9.99999 16.4162
v -5.82625 6.0225 10.9663
v -5.82625 6.0225 11.5663
v -5.82625 6.0225 5.51643
v -5.82625 6.0225 6.11643
v -10.0 10.0 0.0665627
v -10.0 6.0225 10.9663
v -10.0 6.0225 11.5663
v -10.0 6.0225 5.51643
v -10.0 6.0225 6.11643
v 10.0 -5.91398 16.4162
v 10.0 -5.91398 17.0162
v 10.0 -5.91398 10.9663
v 10.0 -5.91398 11.5663
v 10.0 -5.91398 5.51643
v 10.0 -5.91398 6.11643
v 10.0 10.0 0.666563
v 5.82625 -5.91398 16.4162
v 5.82625 -5.91398 10.9663
v 5.82625 -5.91398 5.51643
v 5.82625 -5.91398 17.0162
v 5.82625 -5.91398 11.5663
v 5.82625 -5.91398 6.11643
v 5.82625 6.0225 16.4162
v 5.82625 6.0225 10.9663
v 5.82625 6.0225 5.51643
v 5.82625 6.0225 17.0162
v 5.82625 6.0225 11.5663
v 5.82625 6.0225 6.11643
v 10.0 6.0225 17.0162
v 10.0 6.0225 16.4162
v 10.0 6.0225 11.5663
v 10.0 6.0225 10.9663
v 10.0 6.0225 6.11643
v 10.0 6.0225 5.51643
v 5.82625 6.0225 0.681718
v 5.82625 -5.91398 6.11217
v 10.0 -5.91398 6.11217
v 10.0 6.0225 0.681718
v 5.82625 -5.91398 0.718812
v 10.0 -5.91398 0.718812
v -5.82208 -0.824956 11.5663
v 5.82744 -0.824956 11.5663
v -5.82208 -0.0170942 11.5663
v 5.82744 -0.0170942 11.5663
v -5.82208 -0.824956 16.4425
v 5.82744 -0.824956 16.4425
v -5.82208 -0.0170942 16.4425
v 5.82744 -0.0170942 16.4425
v -1.06705 -0.824956 11.5663
v -1.06705 -0.0170942 11.5663
v -1.06705 -0.0170942 14.9324
v 0.873204 -0.0170942 14.9324
v 0.873204 -0.0170942 11.5663
v 0.873204 -0.824956 11.5663
v 0.873204 -0.824956 14.9324
v -1.06705 -0.824956 14.9324
v -1.06705 -0.0170942 14.9324
v 0.873204 -0.0170942 14.9324
v 0.873204 -0.824956 14.9324
v -1.06705 -0.824956 14.9324
v -10.0 -10.0 0.0668983
v -10.0 10.0 0.0668983
v 10.0 10.0 0.0668983
v 10.0 -10.0 0.0668983
v -10.0 -10.0 23.4418
v -10.0 10.0 23.4418
v 10.0 10.0 23.4418
v 10.0 -10.0 23.4418

#286 Texture coordinates
vt -7.3748 -9.5
vt -7.3748 10.5
vt -7.3748 -9.5
vt -7.9748 10.5
vt -7.9748 10.5
vt -7.9748 -9.5
vt 10.5 10.5
vt 10.5 -9.5
vt -1.92493 10.5
vt -1.92493 -9.5
vt -2.52493 -9.5
vt -2.52493 10.5
vt -2.52493 10.5
vt -2.52493 -9.5
vt 10.5 10.5
vt 10.5 -9.5
vt 3.52493 10.5
vt 3.52493 -9.5
vt 2.92493 -9.5
vt 2.92493 10.5
vt 2.92493 10.5
vt 2.92493 -9.5
vt 8.9748 -9.5
vt 8.9748 10.5
vt 8.9748 10.5
vt 8.3748 10.5
vt 8.3748 10.5
vt -7.9748 -9.5
vt 6.41398 10.5
vt 6.41398 6.32626
vt -2.52493 6.32626
vt -2.52493 6.41398
vt 6.41398 10.5
vt 6.41398 6.32626
vt 2.92493 6.41398
vt 2.92493 6.41398
vt 8.3748 -9.5
vt -7.3748 10.5
vt -1.92493 -5.5225
vt -5.5225 -5.32625
vt 3.52493 -5.32625
vt -5.5225 -5.32625
vt 8.9748 10.5
vt -1.92493 -5.5225
vt -2.52493 -5.5225
vt 3.52493 -5.5225
vt 2.92493 -5.5225
vt -7.3748 -5.41398
vt -7.9748 -5.41398
vt -1.92493 -5.41398
vt -2.52493 -5.41398
vt 3.52493 -5.41398
vt 2.92493 -5.41398
vt 8.3748 10.5
vt 6.41398 -5.32625
vt 6.41398 -5.32625
vt 6.41398 -5.32625
vt 6.41398 6.32625
vt 6.41398 6.32625
vt 6.41398 6.32625
vt -5.5225 -5.32626
vt -5.5225 -5.32626
vt -5.5225 -5.32626
vt -5.5225 6.32626
vt -5.5225 6.32626
vt -5.5225 6.32626
vt -5.5225 10.5
vt -7.3748 6.5225
vt -5.5225 10.5
vt -1.92493 6.5225
vt -5.5225 10.5
vt 3.52493 6.5225
vt -5.5225 6.32626
vt 6.41398 6.32625
vt 6.41398 10.5
vt -5.5225 10.5
vt 8.32255 6.41398
vt 8.32255 -5.41398
vt -2.52493 1.32495
vt -2.52493 -0.324953
vt -2.52493 0.517088
vt -2.52493 0.482909
vt -7.40111 1.32495
vt -7.40111 -0.324953
vt -7.40111 0.517088
vt -7.40111 0.482909
vt -2.52493 -0.56705
vt -2.52493 1.56705
vt 0.51709 -0.56705
vt -5.89101 -0.373204
vt -2.52493 -0.373204
vt -2.52493 1.3732
vt -5.89101 1.3732
vt -5.89101 -0.56705
vt -5.89101 1.56705
vt 0.51709 1.3732
vt 1.32495 1.3732
vt 1.32495 -0.56705
vt -7.3748 -9.5
vt -7.9748 -9.5
vt -1.92493 -9.5
vt -1.92493 10.5
vt -1.92493 -9.5
vt -2.52493 -9.5
vt -1.92493 6.41398
vt -1.92493 10.5
vt -2.52493 10.5
vt 3.52493 -9.5
vt 3.52493 10.5
vt 3.52493 -9.5
vt 2.92493 -9.5
vt 3.52493 6.41398
vt 3.52493 10.5
vt 2.92493 10.5
vt 8.9748 -9.5
vt 8.3748 -9.5
vt 8.9748 -9.5
vt 8.3748 -9.5
vt -2.52493 -9.5
vt -1.92493 -9.5
vt 2.92493 -9.5
vt 3.52493 -9.5
vt -9.5 10.5
vt -9.5 -9.5
vt -5.5225 -9.5
vt -9.5 10.5
vt -9.5 -9.5
vt -5.5225 -9.5
vt -7.9748 -9.5
vt -7.3748 -9.5
vt -7.3748 10.5
vt -7.9748 10.5
vt -1.92493 6.32626
vt -1.92493 10.5
vt -2.52493 10.5
vt -2.52493 -5.5225
vt -1.92493 6.41398
vt -2.52493 6.41398
vt 3.52493 -9.5
vt 2.92493 -5.32625
vt 2.92493 -9.5
vt 2.92493 -5.5225
vt 3.52493 -5.5225
vt 3.52493 6.41398
vt -5.5225 6.32625
vt -5.5225 10.5
vt -9.5 10.5
vt -9.5 -9.5
vt -5.5225 6.32625
vt -5.5225 10.5
vt -9.5 10.5
vt -9.5 -9.5
vt -9.5 10.5
vt -9.5 -9.5
vt 10.5 -9.5
vt 10.5 10.5
vt 6.41398 10.5
vt -9.5 10.5
vt 6.41398 -5.32626
vt 10.5 10.5
vt 6.41398 10.5
vt 6.41398 -5.32626
vt 6.41398 -9.5
vt 10.5 -9.5
vt 10.5 10.5
vt -9.5 10.5
vt 6.41398 -5.32626
vt 10.5 10.5
vt 6.41398 10.5
vt 6.41398 -5.32626
vt 6.41398 -9.5
vt 10.5 -9.5
vt 10.5 10.5
vt -9.5 -9.5
vt 10.5 -9.5
vt 10.5 10.5
vt -9.5 10.5
vt -7.3748 10.5
vt -7.9748 10.5
vt -7.9748 6.5225
vt -1.92493 10.5
vt -2.52493 10.5
vt -2.52493 6.5225
vt 3.52493 10.5
vt 2.92493 10.5
vt 2.92493 6.5225
vt 6.41398 -9.5
vt 10.5 -9.5
vt 10.5 10.5
vt -9.5 10.5
vt -9.5 -9.5
vt -5.5225 -9.5
vt 6.41398 -9.5
vt -5.5225 6.32625
vt -9.5 -9.5
vt -5.5225 -9.5
vt 6.41398 -9.5
vt -5.5225 6.32625
vt -9.5 -9.5
vt -5.5225 -9.5
vt -1.92493 -5.41398
vt -1.92493 6.5225
vt -2.52493 6.5225
vt -2.52493 -5.41398
vt -1.92493 6.32626
vt -1.92493 10.5
vt -2.52493 10.5
vt -2.52493 6.32626
vt 3.52493 -5.41398
vt 3.52493 6.5225
vt 2.92493 6.5225
vt 2.92493 -5.41398
vt 3.52493 6.32626
vt 3.52493 10.5
vt 2.92493 10.5
vt 2.92493 6.32626
vt -7.9748 -5.32625
vt -7.9748 -9.5
vt -7.3748 -9.5
vt -7.3748 -5.32625
vt -7.9748 6.5225
vt -7.9748 -5.41398
vt -7.3748 -5.41398
vt -7.3748 6.5225
vt 3.52493 6.41398
vt -5.5225 10.5
vt -5.5225 6.32625
vt -1.92493 6.5225
vt -2.52493 6.5225
vt 2.92493 -5.41398
vt 3.52493 -5.41398
vt -5.5225 -9.5
vt 6.41398 -9.5
vt 6.41398 -5.32626
vt -7.9748 6.5225
vt 6.41398 10.5
vt -7.9748 -5.5225
vt -7.3748 -5.5225
vt -1.92493 6.41398
vt -2.52493 6.41398
vt -5.5225 -9.5
vt 6.41398 -9.5
vt 8.3748 10.5
vt 8.3748 -9.5
vt 8.9748 -9.5
vt 8.9748 10.5
vt 2.92919 6.41398
vt 8.35964 -5.5225
vt 2.92919 -5.41398
vt 8.35964 6.5225
vt 8.32255 10.5
vt 2.92919 10.5
vt 2.92919 6.32625
vt 8.32255 6.32625
vt -2.52493 6.32208
vt -7.40111 6.32208
vt -7.40111 6.32208
vt -7.40111 -5.32744
vt -7.40111 -5.32744
vt -2.52493 -5.32744
vt -2.52493 6.32744
vt -7.40111 6.32744
vt -7.40111 6.32744
vt -7.40111 -5.32208
vt -7.40111 -5.32208
vt -2.52493 -5.32208
vt -5.89101 -0.324951
vt -2.52493 -0.324951
vt -2.52493 0.48291
vt -5.89101 0.48291
vt -2.52493 1.32495
vt -5.89101 1.32495
vt -5.89101 0.51709
vt -2.52493 0.51709
vt 0.51709 1.56705
vt 0.51709 -0.373204
vt 1.32495 -0.373204
vt 1.32495 1.56705
vt 10.5 10.5
vt -9.5 10.5
vt -9.5 -9.5
vt 10.5 -9.5
vt 10.5 10.5
vt 10.5 -9.5
vt -9.5 10.5
vt -9.5 -9.5

vn 0.0 -1.0 0.0
vn 1.0 0.0 0.0
vn 0.0 1.0 0.0
vn 0.0 0.0 -1.0
vn -1.0 0.0 0.0
vn 0.0 0.0 1.0
vn 0.0 1.0 0.0
vn 0.0 -1.0 0.0
vn 0.0 -1.0 -1.44498e-006
vn 0.0 -1.0 -1.58946e-006
vn 2.07725e-007 -1.0 -1.44474e-007
vn 2.28494e-007 -1.0 0.0
vn 0.0 -1.0 0.0
vn 0.0 1.0 0.0
vn 0.0 0.41533 -0.909671
vn 0.0 0.41533 -0.909671
vn 0.0 0.41533 -0.909671
vn 0.0 0.41533 -0.909671
vn 0.0 -0.41533 0.909671
vn 0.0 -0.41533 0.909671
vn 0.0 -0.41533 0.909671
vn 0.0 -0.41533 0.909671
vn 0.0 -0.41533 0.909671
vn 0.0 -0.41533 0.909671
vn 0.0 -0.41533 0.909671
vn 0.0 -0.41533 0.909671
vn 0.0 0.41533 -0.909671
vn 0.0 0.41533 -0.909671
vn 0.0 0.41533 -0.909671
vn 0.0 0.41533 -0.909671
vn 0.0 0.414105 0.910229
vn 0.0 1.0 0.0
vn 0.0 -1.0 0.0
vn 0.0 0.0 -1.0
#172 number of faces

g gebouw
usemtl 01_-_Default
s 8
f 1/1/1 2/2/1 4/4/1
f 4/4/1 28/28/1 1/1/1
s 16
f 48/48/2 49/49/2 4/100/2
f 4/100/2 2/99/2 48/48/2
s 32
f 3/3/3 38/38/3 5/5/3
f 5/5/3 6/6/3 3/3/3
s 8
f 7/101/1 8/102/1 12/12/1
f 12/12/1 11/11/1 7/101/1
s 16
f 50/50/2 51/51/2 12/104/2
f 12/104/2 8/103/2 50/50/2
s 32
f 10/10/3 9/9/3 13/13/3
f 13/13/3 14/14/3 10/10/3
s 64
f 29/105/5 7/106/5 11/107/5
f 11/107/5 32/32/5 29/105/5
s 8
f 15/108/1 16/109/1 20/20/1
f 20/20/1 19/19/1 15/108/1
s 16
f 52/52/2 53/53/2 20/111/2
f 20/111/2 16/110/2 52/52/2
s 32
f 18/18/3 17/17/3 21/21/3
f 21/21/3 22/22/3 18/18/3
s 64
f 33/112/5 15/113/5 19/114/5
f 19/114/5 36/36/5 33/112/5
s 8
f 23/23/1 24/24/1 26/26/1
f 26/26/1 37/37/1 23/23/1
s 16
f 25/25/2 54/54/2 26/116/2
f 26/116/2 24/115/2 25/25/2
s 32
f 25/117/3 43/43/3 27/27/3
f 27/27/3 54/118/3 25/117/3
s 64
f 13/119/5 9/120/5 44/44/5
f 44/44/5 45/45/5 13/119/5
f 21/121/5 17/122/5 46/46/5
f 46/46/5 47/47/5 21/121/5
s 4
f 40/40/6 14/123/6 13/124/6
f 13/124/6 45/125/6 40/40/6
f 42/42/6 22/126/6 21/127/6
f 21/127/6 47/128/6 42/42/6
s 16
f 38/130/5 1/131/5 28/132/5
f 28/132/5 5/129/5 38/130/5
s 4
f 64/64/6 67/67/6 6/153/6
f 64/64/6 6/153/6 5/154/6
f 58/58/6 64/64/6 5/154/6
f 58/58/6 5/154/6 28/155/6
f 58/58/6 28/155/6 4/156/6
f 58/58/6 4/156/6 49/157/6
f 65/65/6 69/69/6 14/158/6
f 65/65/6 14/158/6 40/40/6
f 59/59/6 65/65/6 40/40/6
f 59/59/6 40/40/6 31/159/6
f 59/59/6 31/159/6 12/160/6
f 59/59/6 12/160/6 51/161/6
f 31/162/6 32/163/6 11/164/6
f 11/164/6 12/165/6 31/162/6
f 66/66/6 71/71/6 22/166/6
f 66/66/6 22/166/6 42/42/6
f 60/60/6 66/66/6 42/42/6
f 60/60/6 42/42/6 35/167/6
f 60/60/6 35/167/6 20/168/6
f 60/60/6 20/168/6 53/169/6
f 35/170/6 36/171/6 19/172/6
f 19/172/6 20/173/6 35/170/6
f 37/175/6 26/176/6 54/177/6
f 54/177/6 27/174/6 37/175/6
s 16
f 3/178/2 6/179/2 67/180/2
f 67/180/2 68/68/2 3/178/2
f 10/181/2 14/182/2 69/183/2
f 69/183/2 70/70/2 10/181/2
f 18/184/2 22/185/2 71/186/2
f 71/186/2 72/72/2 18/184/2
s 8
f 49/218/14 48/219/14 55/220/14
f 55/220/14 58/217/14 49/218/14
s 16
f 58/222/2 55/223/2 61/224/2
f 61/224/2 64/221/2 58/222/2
s 8
f 44/226/15 39/227/16 34/34/17
f 34/34/17 33/33/18 44/226/15
f 40/40/19 45/232/20 36/233/21
f 36/233/21 35/234/22 40/40/19
s 1
f 68/68/2 67/235/2 51/51/2
f 51/51/2 50/50/2 68/68/2
s 8
f 67/67/23 64/64/24 59/59/25
f 59/59/25 51/236/26 67/67/23
f 61/61/27 68/241/28 50/242/29
f 50/242/29 56/56/30 61/61/27
s 0
f 27/244/5 43/245/5 23/246/5
f 23/246/5 37/243/5 27/244/5
s 8
f 76/76/31 73/73/31 74/74/31
f 74/74/31 75/75/31 76/76/31
s 0
f 96/276/34 97/277/34 98/278/34
f 98/278/34 89/275/34 96/276/34

#172 number of faces

g gebouw
usemtl Material_#27
s 8
f 29/134/7 32/135/7 31/31/7
f 31/31/7 30/133/7 29/134/7
s 16
f 39/39/5 30/137/5 31/138/5
f 31/138/5 40/136/5 39/39/5
s 32
f 41/41/8 42/140/8 47/141/8
f 47/141/8 46/139/8 41/41/8
s 16
f 41/143/5 34/144/5 35/35/5
f 35/35/5 42/142/5 41/143/5
f 62/202/2 65/203/2 59/204/2
f 59/204/2 56/201/2 62/202/2
s 32
f 70/206/9 69/207/10 65/208/11
f 65/208/11 62/205/12 70/206/9
s 16
f 63/210/2 66/211/2 60/212/2
f 60/212/2 57/209/2 63/210/2
s 32
f 72/214/13 71/215/13 66/216/13
f 66/216/13 63/213/13 72/214/13
s 1
f 45/45/5 44/44/5 33/225/5
f 33/225/5 36/36/5 45/45/5
f 39/228/2 40/229/2 35/230/2
f 35/230/2 34/231/2 39/228/2
f 64/237/5 61/238/5 56/239/5
f 56/239/5 59/240/5 64/237/5
s 0
f 74/247/5 73/248/5 77/77/5
f 75/249/2 78/78/2 76/250/2
s 1
f 75/252/1 74/253/1 77/254/1
f 77/254/1 78/251/1 75/252/1
s 16
f 80/80/2 82/82/2 86/86/2
f 86/86/2 84/84/2 80/80/2
s 64
f 81/81/5 79/79/5 83/83/5
f 83/83/5 85/85/5 81/81/5
s 0
f 81/255/32 85/256/32 95/95/32
f 95/95/3 88/88/3 81/255/3
f 85/257/3 86/258/3 90/90/3
f 90/90/3 95/95/3 85/257/3
f 86/259/3 82/260/3 91/91/3
f 91/91/3 90/90/3 86/259/3
f 80/261/1 84/262/1 93/93/1
f 93/93/1 92/92/1 80/261/1
f 84/263/1 83/264/1 94/94/1
f 94/94/1 93/93/1 84/263/1
f 83/265/33 79/266/33 87/87/33
f 87/87/1 94/94/1 83/265/1
s 1
f 89/89/6 98/98/6 97/97/6
f 97/97/6 96/96/6 89/89/6
f 87/268/2 88/269/2 95/270/2
f 95/270/2 94/267/2 87/268/2
f 93/272/5 90/273/5 91/274/5
f 91/274/5 92/271/5 93/272/5

#172 number of faces

g gebouw
usemtl Material_#26
s 2
f 7/7/4 29/29/4 30/30/4
f 30/30/4 8/8/4 7/7/4
f 15/15/4 33/33/4 34/34/4
f 34/34/4 16/16/4 15/15/4
f 39/145/4 44/146/4 9/147/4
f 9/147/4 10/148/4 39/145/4
f 41/149/4 46/150/4 17/151/4
f 17/151/4 18/152/4 41/149/4
f 55/55/4 48/187/4 2/188/4
f 55/55/4 2/188/4 1/189/4
f 55/55/4 1/189/4 38/190/4
f 61/61/4 55/55/4 38/190/4
f 61/61/4 38/190/4 3/191/4
f 61/61/4 3/191/4 68/192/4
f 56/56/4 50/193/4 8/8/4
f 56/56/4 8/8/4 30/30/4
f 56/56/4 30/30/4 39/194/4
f 62/62/4 56/56/4 39/194/4
f 62/62/4 39/194/4 10/195/4
f 62/62/4 10/195/4 70/196/4
f 57/57/4 52/197/4 16/16/4
f 57/57/4 16/16/4 34/34/4
f 57/57/4 34/34/4 41/198/4
f 63/63/4 57/57/4 41/198/4
f 63/63/4 41/198/4 18/199/4
f 63/63/4 18/199/4 72/200/4
s 0
f 102/282/3 99/279/3 103/283/3
f 103/283/3 106/284/3 102/282/3
f 99/279/2 100/280/2 104/285/2
f 104/285/2 103/283/2 99/279/2
f 100/280/1 101/281/1 105/286/1
f 105/286/1 104/285/1 100/280/1
f 101/281/5 102/282/5 106/284/5
f 106/284/5 105/286/5 101/281/5
f 104/285/4 105/286/4 106/284/4
f 106/284/4 103/283/4 104/285/4

#172 number of faces

#172 number of faces

#172 number of faces

#172 number of faces

#172 number of faces

#172 number of faces

#172 number of faces
g